<?xml version="1.0" encoding="utf-8" standalone="no"?>
<!DOCTYPE svg PUBLIC "-//W3C//DTD SVG 1.1//EN"
  "http://www.w3.org/Graphics/SVG/1.1/DTD/svg11.dtd">
<svg height="345.6pt" version="1.1" viewBox="0 0 460.8 345.6" width="460.8pt" xmlns="http://www.w3.org/2000/svg" xmlns:xlink="http://www.w3.org/1999/xlink">
 <metadata>
  <rdf:RDF xmlns:cc="http://creativecommons.org/ns#" xmlns:dc="http://purl.org/dc/elements/1.1/" xmlns:rdf="http://www.w3.org/1999/02/22-rdf-syntax-ns#">
   <cc:Work>
    <dc:type rdf:resource="http://purl.org/dc/dcmitype/StillImage"/>
    <dc:date>2022-03-05T21:45:49.832546</dc:date>
    <dc:format>image/svg+xml</dc:format>
    <dc:creator>
     <cc:Agent>
      <dc:title>Matplotlib v3.4.2, https://matplotlib.org/</dc:title>
     </cc:Agent>
    </dc:creator>
   </cc:Work>
  </rdf:RDF>
 </metadata>
 <defs>
  <style type="text/css">*{stroke-linecap:butt;stroke-linejoin:round;}</style>
 </defs>
 <g id="figure_1">
  <g id="patch_1">
   <path d="M 0 345.6 
L 460.8 345.6 
L 460.8 0 
L 0 0 
z
" style="fill:#ffffff;"/>
  </g>
  <g id="axes_1">
   <g id="patch_2">
    <path d="M 57.6 307.584 
L 414.72 307.584 
L 414.72 41.472 
L 57.6 41.472 
z
" style="fill:#ffffff;"/>
   </g>
   <g id="PolyCollection_1">
    <defs>
     <path d="M 73.832727 -292.032 
L 73.832727 -268.938763 
L 77.112066 -248.811958 
L 80.391405 -231.257123 
L 83.670744 -215.764811 
L 86.950083 -201.125809 
L 90.229421 -189.018112 
L 93.50876 -177.885952 
L 96.788099 -168.110846 
L 100.067438 -160.348741 
L 103.346777 -151.959137 
L 106.626116 -144.954935 
L 109.905455 -138.636512 
L 113.184793 -132.987639 
L 116.464132 -128.333477 
L 119.743471 -123.556384 
L 123.02281 -119.604142 
L 126.302149 -115.206335 
L 129.581488 -112.344107 
L 132.860826 -109.547068 
L 136.140165 -106.515238 
L 139.419504 -103.773276 
L 142.698843 -101.242756 
L 145.978182 -99.272481 
L 149.257521 -96.718222 
L 152.53686 -95.110345 
L 155.816198 -93.247409 
L 159.095537 -91.707711 
L 162.374876 -90.179193 
L 165.654215 -87.947859 
L 168.933554 -87.771659 
L 172.212893 -85.724717 
L 175.492231 -84.731522 
L 178.77157 -83.713633 
L 182.050909 -82.53107 
L 185.330248 -81.302754 
L 188.609587 -80.171394 
L 191.888926 -79.283569 
L 195.168264 -78.301497 
L 198.447603 -77.647395 
L 201.726942 -76.857076 
L 205.006281 -75.954586 
L 208.28562 -75.300696 
L 211.564959 -73.764066 
L 214.844298 -73.99368 
L 218.123636 -72.459607 
L 221.402975 -72.562533 
L 224.682314 -71.38793 
L 227.961653 -71.2097 
L 231.240992 -70.071803 
L 234.520331 -70.183262 
L 237.799669 -69.524211 
L 241.079008 -69.056589 
L 244.358347 -68.684491 
L 247.637686 -67.722699 
L 250.917025 -67.439745 
L 254.196364 -66.886828 
L 257.475702 -66.52235 
L 260.755041 -66.310426 
L 264.03438 -65.772845 
L 267.313719 -65.4764 
L 270.593058 -64.932751 
L 273.872397 -64.092371 
L 277.151736 -64.588705 
L 280.431074 -63.796056 
L 283.710413 -63.83895 
L 286.989752 -63.335757 
L 290.269091 -62.90699 
L 293.54843 -62.586875 
L 296.827769 -62.529376 
L 300.107107 -61.808805 
L 303.386446 -61.523376 
L 306.665785 -61.627886 
L 309.945124 -61.150668 
L 313.224463 -60.940299 
L 316.503802 -59.720065 
L 319.78314 -60.480124 
L 323.062479 -59.940188 
L 326.341818 -59.488629 
L 329.621157 -59.721177 
L 332.900496 -59.41138 
L 336.179835 -59.084923 
L 339.459174 -59.064881 
L 342.738512 -58.551783 
L 346.017851 -58.64981 
L 349.29719 -58.401154 
L 352.576529 -57.898401 
L 355.855868 -57.888927 
L 359.135207 -57.045883 
L 362.414545 -56.729595 
L 365.693884 -57.071956 
L 368.973223 -57.086437 
L 372.252562 -56.965365 
L 375.531901 -56.522546 
L 378.81124 -56.516515 
L 382.090579 -55.473863 
L 385.369917 -55.698756 
L 388.649256 -55.812128 
L 391.928595 -55.700075 
L 395.207934 -55.467864 
L 398.487273 -55.285983 
L 398.487273 -58.871664 
L 398.487273 -58.871664 
L 395.207934 -59.172001 
L 391.928595 -59.241498 
L 388.649256 -59.204272 
L 385.369917 -59.486511 
L 382.090579 -59.516192 
L 378.81124 -60.129982 
L 375.531901 -60.373787 
L 372.252562 -60.558999 
L 368.973223 -60.812242 
L 365.693884 -60.818266 
L 362.414545 -61.282595 
L 359.135207 -61.572238 
L 355.855868 -61.700567 
L 352.576529 -62.027659 
L 349.29719 -62.186311 
L 346.017851 -62.655087 
L 342.738512 -63.144051 
L 339.459174 -63.118507 
L 336.179835 -63.136571 
L 332.900496 -63.719966 
L 329.621157 -64.258223 
L 326.341818 -64.394518 
L 323.062479 -64.649728 
L 319.78314 -65.210357 
L 316.503802 -65.204203 
L 313.224463 -65.925011 
L 309.945124 -66.143217 
L 306.665785 -66.614886 
L 303.386446 -67.009668 
L 300.107107 -67.41866 
L 296.827769 -67.766741 
L 293.54843 -68.059776 
L 290.269091 -68.012952 
L 286.989752 -69.246193 
L 283.710413 -69.744211 
L 280.431074 -69.818103 
L 277.151736 -70.339789 
L 273.872397 -71.045455 
L 270.593058 -71.503527 
L 267.313719 -72.30588 
L 264.03438 -72.37331 
L 260.755041 -73.467295 
L 257.475702 -73.826814 
L 254.196364 -74.532665 
L 250.917025 -75.083638 
L 247.637686 -75.809363 
L 244.358347 -76.07402 
L 241.079008 -77.106803 
L 237.799669 -77.874455 
L 234.520331 -78.472518 
L 231.240992 -79.141137 
L 227.961653 -79.620758 
L 224.682314 -80.67544 
L 221.402975 -81.765487 
L 218.123636 -82.031324 
L 214.844298 -83.10735 
L 211.564959 -84.028624 
L 208.28562 -85.151639 
L 205.006281 -85.861531 
L 201.726942 -87.253246 
L 198.447603 -88.26879 
L 195.168264 -89.285036 
L 191.888926 -90.539278 
L 188.609587 -91.531077 
L 185.330248 -93.042691 
L 182.050909 -94.203498 
L 178.77157 -95.532781 
L 175.492231 -96.795752 
L 172.212893 -98.537554 
L 168.933554 -99.959567 
L 165.654215 -101.808362 
L 162.374876 -103.452504 
L 159.095537 -105.518593 
L 155.816198 -107.046161 
L 152.53686 -109.285763 
L 149.257521 -111.352928 
L 145.978182 -113.878838 
L 142.698843 -116.589661 
L 139.419504 -119.159841 
L 136.140165 -121.76172 
L 132.860826 -125.078172 
L 129.581488 -128.513643 
L 126.302149 -132.188961 
L 123.02281 -135.92559 
L 119.743471 -140.480522 
L 116.464132 -145.446879 
L 113.184793 -150.923024 
L 109.905455 -158.439618 
L 106.626116 -166.736958 
L 103.346777 -175.496532 
L 100.067438 -184.74628 
L 96.788099 -194.76816 
L 93.50876 -205.391433 
L 90.229421 -216.274665 
L 86.950083 -227.742622 
L 83.670744 -241.781176 
L 80.391405 -256.297061 
L 77.112066 -272.697324 
L 73.832727 -292.032 
z
" id="m38eb216103"/>
    </defs>
    <g clip-path="url(#pa55a568a0a)">
     <use style="fill:#d62728;fill-opacity:0.3;" x="0" xlink:href="#m38eb216103" y="345.6"/>
    </g>
   </g>
   <g id="PolyCollection_2">
    <defs>
     <path d="M 73.832727 -281.530427 
L 73.832727 -253.415169 
L 77.112066 -238.156908 
L 80.391405 -221.626924 
L 83.670744 -204.618796 
L 86.950083 -190.831004 
L 90.229421 -176.789285 
L 93.50876 -165.794626 
L 96.788099 -152.874208 
L 100.067438 -144.833718 
L 103.346777 -137.540824 
L 106.626116 -130.434326 
L 109.905455 -123.919694 
L 113.184793 -117.454634 
L 116.464132 -111.85864 
L 119.743471 -108.105079 
L 123.02281 -103.349923 
L 126.302149 -99.540752 
L 129.581488 -97.040504 
L 132.860826 -94.219441 
L 136.140165 -91.644669 
L 139.419504 -89.661087 
L 142.698843 -87.415508 
L 145.978182 -84.687423 
L 149.257521 -83.818341 
L 152.53686 -80.795081 
L 155.816198 -80.106184 
L 159.095537 -77.510246 
L 162.374876 -76.284883 
L 165.654215 -77.083548 
L 168.933554 -74.192273 
L 172.212893 -72.351136 
L 175.492231 -72.281199 
L 178.77157 -70.889849 
L 182.050909 -70.600454 
L 185.330248 -69.712742 
L 188.609587 -69.473629 
L 191.888926 -67.538561 
L 195.168264 -68.203697 
L 198.447603 -66.504616 
L 201.726942 -66.778293 
L 205.006281 -66.522658 
L 208.28562 -65.279415 
L 211.564959 -65.069774 
L 214.844298 -64.05284 
L 218.123636 -63.51108 
L 221.402975 -63.040351 
L 224.682314 -62.314233 
L 227.961653 -61.137205 
L 231.240992 -61.802695 
L 234.520331 -60.869335 
L 237.799669 -61.293273 
L 241.079008 -58.8217 
L 244.358347 -59.058508 
L 247.637686 -59.418055 
L 250.917025 -59.506141 
L 254.196364 -57.744534 
L 257.475702 -58.071816 
L 260.755041 -58.381951 
L 264.03438 -57.38703 
L 267.313719 -57.234736 
L 270.593058 -56.179765 
L 273.872397 -57.212838 
L 277.151736 -56.02587 
L 280.431074 -55.817171 
L 283.710413 -56.510936 
L 286.989752 -56.156745 
L 290.269091 -55.558209 
L 293.54843 -55.663025 
L 296.827769 -55.110941 
L 300.107107 -54.281596 
L 303.386446 -54.36014 
L 306.665785 -53.881132 
L 309.945124 -54.806207 
L 313.224463 -54.853597 
L 316.503802 -52.833951 
L 319.78314 -53.985809 
L 323.062479 -52.922908 
L 326.341818 -52.933968 
L 329.621157 -52.827371 
L 332.900496 -52.431403 
L 336.179835 -52.419377 
L 339.459174 -52.507963 
L 342.738512 -51.786813 
L 346.017851 -51.751565 
L 349.29719 -52.125103 
L 352.576529 -51.803147 
L 355.855868 -50.950435 
L 359.135207 -52.274497 
L 362.414545 -51.051191 
L 365.693884 -51.378426 
L 368.973223 -51.685819 
L 372.252562 -51.034464 
L 375.531901 -51.597388 
L 378.81124 -50.877866 
L 382.090579 -50.393784 
L 385.369917 -50.737554 
L 388.649256 -50.112 
L 391.928595 -50.148147 
L 395.207934 -50.304023 
L 398.487273 -50.696622 
L 398.487273 -53.28182 
L 398.487273 -53.28182 
L 395.207934 -54.12048 
L 391.928595 -54.204477 
L 388.649256 -56.527524 
L 385.369917 -53.092049 
L 382.090579 -54.367802 
L 378.81124 -54.504292 
L 375.531901 -54.774393 
L 372.252562 -54.928377 
L 368.973223 -54.384082 
L 365.693884 -54.397174 
L 362.414545 -54.866549 
L 359.135207 -56.788486 
L 355.855868 -55.809031 
L 352.576529 -54.962841 
L 349.29719 -57.055162 
L 346.017851 -56.621037 
L 342.738512 -57.4576 
L 339.459174 -57.001899 
L 336.179835 -59.913762 
L 332.900496 -57.163971 
L 329.621157 -57.543642 
L 326.341818 -57.49719 
L 323.062479 -58.672308 
L 319.78314 -57.818358 
L 316.503802 -58.615473 
L 313.224463 -58.023807 
L 309.945124 -58.356094 
L 306.665785 -58.64372 
L 303.386446 -59.469706 
L 300.107107 -60.55114 
L 296.827769 -59.426653 
L 293.54843 -60.483854 
L 290.269091 -61.853931 
L 286.989752 -61.787282 
L 283.710413 -61.908887 
L 280.431074 -62.051516 
L 277.151736 -62.337382 
L 273.872397 -62.771536 
L 270.593058 -62.316238 
L 267.313719 -63.550062 
L 264.03438 -64.035968 
L 260.755041 -64.673561 
L 257.475702 -65.768224 
L 254.196364 -65.070169 
L 250.917025 -66.232688 
L 247.637686 -66.413186 
L 244.358347 -68.20087 
L 241.079008 -68.474702 
L 237.799669 -68.496559 
L 234.520331 -70.240198 
L 231.240992 -70.417711 
L 227.961653 -71.127152 
L 224.682314 -70.472205 
L 221.402975 -71.966166 
L 218.123636 -72.48884 
L 214.844298 -73.142159 
L 211.564959 -73.466408 
L 208.28562 -74.341008 
L 205.006281 -76.383446 
L 201.726942 -76.339954 
L 198.447603 -77.145562 
L 195.168264 -78.096993 
L 191.888926 -79.257879 
L 188.609587 -79.507738 
L 185.330248 -80.731368 
L 182.050909 -83.137841 
L 178.77157 -83.626851 
L 175.492231 -84.931318 
L 172.212893 -85.744143 
L 168.933554 -87.644795 
L 165.654215 -88.748823 
L 162.374876 -90.546799 
L 159.095537 -92.754416 
L 155.816198 -95.139226 
L 152.53686 -96.962766 
L 149.257521 -99.556097 
L 145.978182 -100.519718 
L 142.698843 -103.409603 
L 139.419504 -105.986496 
L 136.140165 -108.272488 
L 132.860826 -111.959491 
L 129.581488 -114.599383 
L 126.302149 -118.397708 
L 123.02281 -121.781158 
L 119.743471 -126.549889 
L 116.464132 -131.029686 
L 113.184793 -138.723249 
L 109.905455 -145.256725 
L 106.626116 -154.444787 
L 103.346777 -164.250582 
L 100.067438 -174.639596 
L 96.788099 -186.634054 
L 93.50876 -198.529204 
L 90.229421 -210.802289 
L 86.950083 -222.785934 
L 83.670744 -236.65097 
L 80.391405 -250.664274 
L 77.112066 -266.446696 
L 73.832727 -281.530427 
z
" id="m046d83e3d8"/>
    </defs>
    <g clip-path="url(#pa55a568a0a)">
     <use style="fill:#1f77b4;fill-opacity:0.3;" x="0" xlink:href="#m046d83e3d8" y="345.6"/>
    </g>
   </g>
   <g id="matplotlib.axis_1">
    <g id="xtick_1">
     <g id="line2d_1">
      <defs>
       <path d="M 0 0 
L 0 3.5 
" id="m04e532119a" style="stroke:#000000;stroke-width:0.8;"/>
      </defs>
      <g>
       <use style="stroke:#000000;stroke-width:0.8;" x="73.832727" xlink:href="#m04e532119a" y="307.584"/>
      </g>
     </g>
     <g id="text_1">
      <!-- 0 -->
      <g transform="translate(70.651477 322.182437)scale(0.1 -0.1)">
       <defs>
        <path d="M 2034 4250 
Q 1547 4250 1301 3770 
Q 1056 3291 1056 2328 
Q 1056 1369 1301 889 
Q 1547 409 2034 409 
Q 2525 409 2770 889 
Q 3016 1369 3016 2328 
Q 3016 3291 2770 3770 
Q 2525 4250 2034 4250 
z
M 2034 4750 
Q 2819 4750 3233 4129 
Q 3647 3509 3647 2328 
Q 3647 1150 3233 529 
Q 2819 -91 2034 -91 
Q 1250 -91 836 529 
Q 422 1150 422 2328 
Q 422 3509 836 4129 
Q 1250 4750 2034 4750 
z
" id="DejaVuSans-30" transform="scale(0.015625)"/>
       </defs>
       <use xlink:href="#DejaVuSans-30"/>
      </g>
     </g>
    </g>
    <g id="xtick_2">
     <g id="line2d_2">
      <g>
       <use style="stroke:#000000;stroke-width:0.8;" x="139.419504" xlink:href="#m04e532119a" y="307.584"/>
      </g>
     </g>
     <g id="text_2">
      <!-- 20 -->
      <g transform="translate(133.057004 322.182437)scale(0.1 -0.1)">
       <defs>
        <path d="M 1228 531 
L 3431 531 
L 3431 0 
L 469 0 
L 469 531 
Q 828 903 1448 1529 
Q 2069 2156 2228 2338 
Q 2531 2678 2651 2914 
Q 2772 3150 2772 3378 
Q 2772 3750 2511 3984 
Q 2250 4219 1831 4219 
Q 1534 4219 1204 4116 
Q 875 4013 500 3803 
L 500 4441 
Q 881 4594 1212 4672 
Q 1544 4750 1819 4750 
Q 2544 4750 2975 4387 
Q 3406 4025 3406 3419 
Q 3406 3131 3298 2873 
Q 3191 2616 2906 2266 
Q 2828 2175 2409 1742 
Q 1991 1309 1228 531 
z
" id="DejaVuSans-32" transform="scale(0.015625)"/>
       </defs>
       <use xlink:href="#DejaVuSans-32"/>
       <use x="63.623047" xlink:href="#DejaVuSans-30"/>
      </g>
     </g>
    </g>
    <g id="xtick_3">
     <g id="line2d_3">
      <g>
       <use style="stroke:#000000;stroke-width:0.8;" x="205.006281" xlink:href="#m04e532119a" y="307.584"/>
      </g>
     </g>
     <g id="text_3">
      <!-- 40 -->
      <g transform="translate(198.643781 322.182437)scale(0.1 -0.1)">
       <defs>
        <path d="M 2419 4116 
L 825 1625 
L 2419 1625 
L 2419 4116 
z
M 2253 4666 
L 3047 4666 
L 3047 1625 
L 3713 1625 
L 3713 1100 
L 3047 1100 
L 3047 0 
L 2419 0 
L 2419 1100 
L 313 1100 
L 313 1709 
L 2253 4666 
z
" id="DejaVuSans-34" transform="scale(0.015625)"/>
       </defs>
       <use xlink:href="#DejaVuSans-34"/>
       <use x="63.623047" xlink:href="#DejaVuSans-30"/>
      </g>
     </g>
    </g>
    <g id="xtick_4">
     <g id="line2d_4">
      <g>
       <use style="stroke:#000000;stroke-width:0.8;" x="270.593058" xlink:href="#m04e532119a" y="307.584"/>
      </g>
     </g>
     <g id="text_4">
      <!-- 60 -->
      <g transform="translate(264.230558 322.182437)scale(0.1 -0.1)">
       <defs>
        <path d="M 2113 2584 
Q 1688 2584 1439 2293 
Q 1191 2003 1191 1497 
Q 1191 994 1439 701 
Q 1688 409 2113 409 
Q 2538 409 2786 701 
Q 3034 994 3034 1497 
Q 3034 2003 2786 2293 
Q 2538 2584 2113 2584 
z
M 3366 4563 
L 3366 3988 
Q 3128 4100 2886 4159 
Q 2644 4219 2406 4219 
Q 1781 4219 1451 3797 
Q 1122 3375 1075 2522 
Q 1259 2794 1537 2939 
Q 1816 3084 2150 3084 
Q 2853 3084 3261 2657 
Q 3669 2231 3669 1497 
Q 3669 778 3244 343 
Q 2819 -91 2113 -91 
Q 1303 -91 875 529 
Q 447 1150 447 2328 
Q 447 3434 972 4092 
Q 1497 4750 2381 4750 
Q 2619 4750 2861 4703 
Q 3103 4656 3366 4563 
z
" id="DejaVuSans-36" transform="scale(0.015625)"/>
       </defs>
       <use xlink:href="#DejaVuSans-36"/>
       <use x="63.623047" xlink:href="#DejaVuSans-30"/>
      </g>
     </g>
    </g>
    <g id="xtick_5">
     <g id="line2d_5">
      <g>
       <use style="stroke:#000000;stroke-width:0.8;" x="336.179835" xlink:href="#m04e532119a" y="307.584"/>
      </g>
     </g>
     <g id="text_5">
      <!-- 80 -->
      <g transform="translate(329.817335 322.182437)scale(0.1 -0.1)">
       <defs>
        <path d="M 2034 2216 
Q 1584 2216 1326 1975 
Q 1069 1734 1069 1313 
Q 1069 891 1326 650 
Q 1584 409 2034 409 
Q 2484 409 2743 651 
Q 3003 894 3003 1313 
Q 3003 1734 2745 1975 
Q 2488 2216 2034 2216 
z
M 1403 2484 
Q 997 2584 770 2862 
Q 544 3141 544 3541 
Q 544 4100 942 4425 
Q 1341 4750 2034 4750 
Q 2731 4750 3128 4425 
Q 3525 4100 3525 3541 
Q 3525 3141 3298 2862 
Q 3072 2584 2669 2484 
Q 3125 2378 3379 2068 
Q 3634 1759 3634 1313 
Q 3634 634 3220 271 
Q 2806 -91 2034 -91 
Q 1263 -91 848 271 
Q 434 634 434 1313 
Q 434 1759 690 2068 
Q 947 2378 1403 2484 
z
M 1172 3481 
Q 1172 3119 1398 2916 
Q 1625 2713 2034 2713 
Q 2441 2713 2670 2916 
Q 2900 3119 2900 3481 
Q 2900 3844 2670 4047 
Q 2441 4250 2034 4250 
Q 1625 4250 1398 4047 
Q 1172 3844 1172 3481 
z
" id="DejaVuSans-38" transform="scale(0.015625)"/>
       </defs>
       <use xlink:href="#DejaVuSans-38"/>
       <use x="63.623047" xlink:href="#DejaVuSans-30"/>
      </g>
     </g>
    </g>
    <g id="xtick_6">
     <g id="line2d_6">
      <g>
       <use style="stroke:#000000;stroke-width:0.8;" x="401.766612" xlink:href="#m04e532119a" y="307.584"/>
      </g>
     </g>
     <g id="text_6">
      <!-- 100 -->
      <g transform="translate(392.222862 322.182437)scale(0.1 -0.1)">
       <defs>
        <path d="M 794 531 
L 1825 531 
L 1825 4091 
L 703 3866 
L 703 4441 
L 1819 4666 
L 2450 4666 
L 2450 531 
L 3481 531 
L 3481 0 
L 794 0 
L 794 531 
z
" id="DejaVuSans-31" transform="scale(0.015625)"/>
       </defs>
       <use xlink:href="#DejaVuSans-31"/>
       <use x="63.623047" xlink:href="#DejaVuSans-30"/>
       <use x="127.246094" xlink:href="#DejaVuSans-30"/>
      </g>
     </g>
    </g>
    <g id="text_7">
     <!-- epoch -->
     <g transform="translate(220.931875 335.860562)scale(0.1 -0.1)">
      <defs>
       <path d="M 3597 1894 
L 3597 1613 
L 953 1613 
Q 991 1019 1311 708 
Q 1631 397 2203 397 
Q 2534 397 2845 478 
Q 3156 559 3463 722 
L 3463 178 
Q 3153 47 2828 -22 
Q 2503 -91 2169 -91 
Q 1331 -91 842 396 
Q 353 884 353 1716 
Q 353 2575 817 3079 
Q 1281 3584 2069 3584 
Q 2775 3584 3186 3129 
Q 3597 2675 3597 1894 
z
M 3022 2063 
Q 3016 2534 2758 2815 
Q 2500 3097 2075 3097 
Q 1594 3097 1305 2825 
Q 1016 2553 972 2059 
L 3022 2063 
z
" id="DejaVuSans-65" transform="scale(0.015625)"/>
       <path d="M 1159 525 
L 1159 -1331 
L 581 -1331 
L 581 3500 
L 1159 3500 
L 1159 2969 
Q 1341 3281 1617 3432 
Q 1894 3584 2278 3584 
Q 2916 3584 3314 3078 
Q 3713 2572 3713 1747 
Q 3713 922 3314 415 
Q 2916 -91 2278 -91 
Q 1894 -91 1617 61 
Q 1341 213 1159 525 
z
M 3116 1747 
Q 3116 2381 2855 2742 
Q 2594 3103 2138 3103 
Q 1681 3103 1420 2742 
Q 1159 2381 1159 1747 
Q 1159 1113 1420 752 
Q 1681 391 2138 391 
Q 2594 391 2855 752 
Q 3116 1113 3116 1747 
z
" id="DejaVuSans-70" transform="scale(0.015625)"/>
       <path d="M 1959 3097 
Q 1497 3097 1228 2736 
Q 959 2375 959 1747 
Q 959 1119 1226 758 
Q 1494 397 1959 397 
Q 2419 397 2687 759 
Q 2956 1122 2956 1747 
Q 2956 2369 2687 2733 
Q 2419 3097 1959 3097 
z
M 1959 3584 
Q 2709 3584 3137 3096 
Q 3566 2609 3566 1747 
Q 3566 888 3137 398 
Q 2709 -91 1959 -91 
Q 1206 -91 779 398 
Q 353 888 353 1747 
Q 353 2609 779 3096 
Q 1206 3584 1959 3584 
z
" id="DejaVuSans-6f" transform="scale(0.015625)"/>
       <path d="M 3122 3366 
L 3122 2828 
Q 2878 2963 2633 3030 
Q 2388 3097 2138 3097 
Q 1578 3097 1268 2742 
Q 959 2388 959 1747 
Q 959 1106 1268 751 
Q 1578 397 2138 397 
Q 2388 397 2633 464 
Q 2878 531 3122 666 
L 3122 134 
Q 2881 22 2623 -34 
Q 2366 -91 2075 -91 
Q 1284 -91 818 406 
Q 353 903 353 1747 
Q 353 2603 823 3093 
Q 1294 3584 2113 3584 
Q 2378 3584 2631 3529 
Q 2884 3475 3122 3366 
z
" id="DejaVuSans-63" transform="scale(0.015625)"/>
       <path d="M 3513 2113 
L 3513 0 
L 2938 0 
L 2938 2094 
Q 2938 2591 2744 2837 
Q 2550 3084 2163 3084 
Q 1697 3084 1428 2787 
Q 1159 2491 1159 1978 
L 1159 0 
L 581 0 
L 581 4863 
L 1159 4863 
L 1159 2956 
Q 1366 3272 1645 3428 
Q 1925 3584 2291 3584 
Q 2894 3584 3203 3211 
Q 3513 2838 3513 2113 
z
" id="DejaVuSans-68" transform="scale(0.015625)"/>
      </defs>
      <use xlink:href="#DejaVuSans-65"/>
      <use x="61.523438" xlink:href="#DejaVuSans-70"/>
      <use x="125" xlink:href="#DejaVuSans-6f"/>
      <use x="186.181641" xlink:href="#DejaVuSans-63"/>
      <use x="241.162109" xlink:href="#DejaVuSans-68"/>
     </g>
    </g>
   </g>
   <g id="matplotlib.axis_2">
    <g id="ytick_1">
     <g id="line2d_7">
      <defs>
       <path d="M 0 0 
L -3.5 0 
" id="m58265a9920" style="stroke:#000000;stroke-width:0.8;"/>
      </defs>
      <g>
       <use style="stroke:#000000;stroke-width:0.8;" x="57.6" xlink:href="#m58265a9920" y="273.889629"/>
      </g>
     </g>
     <g id="text_8">
      <!-- 0.1 -->
      <g transform="translate(34.696875 277.688848)scale(0.1 -0.1)">
       <defs>
        <path d="M 684 794 
L 1344 794 
L 1344 0 
L 684 0 
L 684 794 
z
" id="DejaVuSans-2e" transform="scale(0.015625)"/>
       </defs>
       <use xlink:href="#DejaVuSans-30"/>
       <use x="63.623047" xlink:href="#DejaVuSans-2e"/>
       <use x="95.410156" xlink:href="#DejaVuSans-31"/>
      </g>
     </g>
    </g>
    <g id="ytick_2">
     <g id="line2d_8">
      <g>
       <use style="stroke:#000000;stroke-width:0.8;" x="57.6" xlink:href="#m58265a9920" y="237.020828"/>
      </g>
     </g>
     <g id="text_9">
      <!-- 0.2 -->
      <g transform="translate(34.696875 240.820047)scale(0.1 -0.1)">
       <use xlink:href="#DejaVuSans-30"/>
       <use x="63.623047" xlink:href="#DejaVuSans-2e"/>
       <use x="95.410156" xlink:href="#DejaVuSans-32"/>
      </g>
     </g>
    </g>
    <g id="ytick_3">
     <g id="line2d_9">
      <g>
       <use style="stroke:#000000;stroke-width:0.8;" x="57.6" xlink:href="#m58265a9920" y="200.152027"/>
      </g>
     </g>
     <g id="text_10">
      <!-- 0.3 -->
      <g transform="translate(34.696875 203.951246)scale(0.1 -0.1)">
       <defs>
        <path d="M 2597 2516 
Q 3050 2419 3304 2112 
Q 3559 1806 3559 1356 
Q 3559 666 3084 287 
Q 2609 -91 1734 -91 
Q 1441 -91 1130 -33 
Q 819 25 488 141 
L 488 750 
Q 750 597 1062 519 
Q 1375 441 1716 441 
Q 2309 441 2620 675 
Q 2931 909 2931 1356 
Q 2931 1769 2642 2001 
Q 2353 2234 1838 2234 
L 1294 2234 
L 1294 2753 
L 1863 2753 
Q 2328 2753 2575 2939 
Q 2822 3125 2822 3475 
Q 2822 3834 2567 4026 
Q 2313 4219 1838 4219 
Q 1578 4219 1281 4162 
Q 984 4106 628 3988 
L 628 4550 
Q 988 4650 1302 4700 
Q 1616 4750 1894 4750 
Q 2613 4750 3031 4423 
Q 3450 4097 3450 3541 
Q 3450 3153 3228 2886 
Q 3006 2619 2597 2516 
z
" id="DejaVuSans-33" transform="scale(0.015625)"/>
       </defs>
       <use xlink:href="#DejaVuSans-30"/>
       <use x="63.623047" xlink:href="#DejaVuSans-2e"/>
       <use x="95.410156" xlink:href="#DejaVuSans-33"/>
      </g>
     </g>
    </g>
    <g id="ytick_4">
     <g id="line2d_10">
      <g>
       <use style="stroke:#000000;stroke-width:0.8;" x="57.6" xlink:href="#m58265a9920" y="163.283226"/>
      </g>
     </g>
     <g id="text_11">
      <!-- 0.4 -->
      <g transform="translate(34.696875 167.082445)scale(0.1 -0.1)">
       <use xlink:href="#DejaVuSans-30"/>
       <use x="63.623047" xlink:href="#DejaVuSans-2e"/>
       <use x="95.410156" xlink:href="#DejaVuSans-34"/>
      </g>
     </g>
    </g>
    <g id="ytick_5">
     <g id="line2d_11">
      <g>
       <use style="stroke:#000000;stroke-width:0.8;" x="57.6" xlink:href="#m58265a9920" y="126.414425"/>
      </g>
     </g>
     <g id="text_12">
      <!-- 0.5 -->
      <g transform="translate(34.696875 130.213643)scale(0.1 -0.1)">
       <defs>
        <path d="M 691 4666 
L 3169 4666 
L 3169 4134 
L 1269 4134 
L 1269 2991 
Q 1406 3038 1543 3061 
Q 1681 3084 1819 3084 
Q 2600 3084 3056 2656 
Q 3513 2228 3513 1497 
Q 3513 744 3044 326 
Q 2575 -91 1722 -91 
Q 1428 -91 1123 -41 
Q 819 9 494 109 
L 494 744 
Q 775 591 1075 516 
Q 1375 441 1709 441 
Q 2250 441 2565 725 
Q 2881 1009 2881 1497 
Q 2881 1984 2565 2268 
Q 2250 2553 1709 2553 
Q 1456 2553 1204 2497 
Q 953 2441 691 2322 
L 691 4666 
z
" id="DejaVuSans-35" transform="scale(0.015625)"/>
       </defs>
       <use xlink:href="#DejaVuSans-30"/>
       <use x="63.623047" xlink:href="#DejaVuSans-2e"/>
       <use x="95.410156" xlink:href="#DejaVuSans-35"/>
      </g>
     </g>
    </g>
    <g id="ytick_6">
     <g id="line2d_12">
      <g>
       <use style="stroke:#000000;stroke-width:0.8;" x="57.6" xlink:href="#m58265a9920" y="89.545624"/>
      </g>
     </g>
     <g id="text_13">
      <!-- 0.6 -->
      <g transform="translate(34.696875 93.344842)scale(0.1 -0.1)">
       <use xlink:href="#DejaVuSans-30"/>
       <use x="63.623047" xlink:href="#DejaVuSans-2e"/>
       <use x="95.410156" xlink:href="#DejaVuSans-36"/>
      </g>
     </g>
    </g>
    <g id="ytick_7">
     <g id="line2d_13">
      <g>
       <use style="stroke:#000000;stroke-width:0.8;" x="57.6" xlink:href="#m58265a9920" y="52.676822"/>
      </g>
     </g>
     <g id="text_14">
      <!-- 0.7 -->
      <g transform="translate(34.696875 56.476041)scale(0.1 -0.1)">
       <defs>
        <path d="M 525 4666 
L 3525 4666 
L 3525 4397 
L 1831 0 
L 1172 0 
L 2766 4134 
L 525 4134 
L 525 4666 
z
" id="DejaVuSans-37" transform="scale(0.015625)"/>
       </defs>
       <use xlink:href="#DejaVuSans-30"/>
       <use x="63.623047" xlink:href="#DejaVuSans-2e"/>
       <use x="95.410156" xlink:href="#DejaVuSans-37"/>
      </g>
     </g>
    </g>
    <g id="text_15">
     <!-- loss -->
     <g transform="translate(28.617188 184.185812)rotate(-90)scale(0.1 -0.1)">
      <defs>
       <path d="M 603 4863 
L 1178 4863 
L 1178 0 
L 603 0 
L 603 4863 
z
" id="DejaVuSans-6c" transform="scale(0.015625)"/>
       <path d="M 2834 3397 
L 2834 2853 
Q 2591 2978 2328 3040 
Q 2066 3103 1784 3103 
Q 1356 3103 1142 2972 
Q 928 2841 928 2578 
Q 928 2378 1081 2264 
Q 1234 2150 1697 2047 
L 1894 2003 
Q 2506 1872 2764 1633 
Q 3022 1394 3022 966 
Q 3022 478 2636 193 
Q 2250 -91 1575 -91 
Q 1294 -91 989 -36 
Q 684 19 347 128 
L 347 722 
Q 666 556 975 473 
Q 1284 391 1588 391 
Q 1994 391 2212 530 
Q 2431 669 2431 922 
Q 2431 1156 2273 1281 
Q 2116 1406 1581 1522 
L 1381 1569 
Q 847 1681 609 1914 
Q 372 2147 372 2553 
Q 372 3047 722 3315 
Q 1072 3584 1716 3584 
Q 2034 3584 2315 3537 
Q 2597 3491 2834 3397 
z
" id="DejaVuSans-73" transform="scale(0.015625)"/>
      </defs>
      <use xlink:href="#DejaVuSans-6c"/>
      <use x="27.783203" xlink:href="#DejaVuSans-6f"/>
      <use x="88.964844" xlink:href="#DejaVuSans-73"/>
      <use x="141.064453" xlink:href="#DejaVuSans-73"/>
     </g>
    </g>
   </g>
   <g id="line2d_14">
    <path clip-path="url(#pa55a568a0a)" d="M 73.832727 68.032572 
L 77.112066 87.310296 
L 80.391405 103.514913 
L 83.670744 117.771455 
L 86.950083 130.986871 
L 90.229421 142.927375 
L 93.50876 154.184443 
L 96.788099 164.314992 
L 100.067438 173.774392 
L 103.346777 182.25972 
L 106.626116 190.014594 
L 109.905455 197.199631 
L 113.184793 203.616806 
L 116.464132 209.042434 
L 119.743471 214.383372 
L 123.02281 218.999311 
L 126.302149 223.394165 
L 129.581488 226.970097 
L 132.860826 230.644523 
L 136.140165 233.601532 
L 139.419504 236.636855 
L 142.698843 239.315224 
L 145.978182 241.898515 
L 149.257521 244.03652 
L 152.53686 246.243716 
L 155.816198 248.361603 
L 159.095537 249.955889 
L 162.374876 251.69902 
L 165.654215 253.276009 
L 168.933554 254.745898 
L 172.212893 256.202631 
L 175.492231 257.581179 
L 178.77157 258.806941 
L 182.050909 260.086785 
L 185.330248 261.167449 
L 188.609587 262.355826 
L 191.888926 263.303952 
L 195.168264 264.238199 
L 198.447603 265.150386 
L 201.726942 266.110293 
L 205.006281 266.947077 
L 208.28562 267.740137 
L 211.564959 268.915088 
L 214.844298 269.207364 
L 218.123636 270.164975 
L 221.402975 270.676344 
L 224.682314 271.369135 
L 227.961653 271.954384 
L 231.240992 272.640411 
L 234.520331 273.114116 
L 237.799669 273.927055 
L 241.079008 274.381957 
L 244.358347 274.798901 
L 247.637686 275.331342 
L 250.917025 275.814014 
L 254.196364 276.535594 
L 257.475702 276.98368 
L 260.755041 277.516275 
L 264.03438 277.724063 
L 267.313719 277.998692 
L 270.593058 278.62657 
L 273.872397 278.91971 
L 277.151736 279.344344 
L 280.431074 279.740298 
L 283.710413 280.099771 
L 286.989752 280.50654 
L 290.269091 281.027664 
L 293.54843 281.109709 
L 296.827769 281.498629 
L 300.107107 281.996086 
L 303.386446 282.149006 
L 306.665785 282.394672 
L 309.945124 282.834105 
L 313.224463 282.946812 
L 316.503802 283.568985 
L 319.78314 283.530451 
L 323.062479 283.884494 
L 326.341818 284.152011 
L 329.621157 284.512439 
L 332.900496 284.577014 
L 336.179835 284.827264 
L 339.459174 285.080125 
L 342.738512 285.391514 
L 346.017851 285.638518 
L 349.29719 285.82779 
L 352.576529 286.175636 
L 355.855868 286.242303 
L 359.135207 286.592533 
L 362.414545 286.771315 
L 365.693884 286.811062 
L 368.973223 286.987425 
L 372.252562 287.215086 
L 375.531901 287.467094 
L 378.81124 287.61751 
L 382.090579 288.077637 
L 385.369917 288.215362 
L 388.649256 288.272484 
L 391.928595 288.308532 
L 395.207934 288.560044 
L 398.487273 288.64648 
" style="fill:none;stroke:#d62728;stroke-linecap:square;stroke-width:1.5;"/>
   </g>
   <g id="line2d_15">
    <path clip-path="url(#pa55a568a0a)" d="M 73.832727 79.12711 
L 77.112066 95.11758 
L 80.391405 110.376166 
L 83.670744 125.199687 
L 86.950083 139.155593 
L 90.229421 152.85511 
L 93.50876 164.825484 
L 96.788099 176.430891 
L 100.067438 186.494052 
L 103.346777 195.773607 
L 106.626116 204.433093 
L 109.905455 212.25853 
L 113.184793 218.184357 
L 116.464132 224.392708 
L 119.743471 229.385972 
L 123.02281 234.019356 
L 126.302149 237.616807 
L 129.581488 241.723141 
L 132.860826 244.571355 
L 136.140165 247.76284 
L 139.419504 250.350364 
L 142.698843 252.796082 
L 145.978182 255.501943 
L 149.257521 257.156258 
L 152.53686 259.101621 
L 155.816198 260.252272 
L 159.095537 262.558693 
L 162.374876 263.599545 
L 165.654215 264.737064 
L 168.933554 266.754956 
L 172.212893 267.900032 
L 175.492231 269.20771 
L 178.77157 270.497448 
L 182.050909 271.032887 
L 185.330248 272.151512 
L 188.609587 273.230599 
L 191.888926 273.987131 
L 195.168264 274.655787 
L 198.447603 275.772279 
L 201.726942 275.806894 
L 205.006281 276.454797 
L 208.28562 277.275567 
L 211.564959 277.956082 
L 214.844298 278.352917 
L 218.123636 279.099157 
L 221.402975 279.61871 
L 224.682314 280.396013 
L 227.961653 281.133726 
L 231.240992 281.17099 
L 234.520331 282.003619 
L 237.799669 281.766606 
L 241.079008 282.20781 
L 244.358347 282.914562 
L 247.637686 284.115121 
L 250.917025 283.864701 
L 254.196364 284.382646 
L 257.475702 284.644968 
L 260.755041 284.479116 
L 264.03438 285.367137 
L 267.313719 286.11319 
L 270.593058 286.33872 
L 273.872397 286.402134 
L 277.151736 286.458056 
L 280.431074 287.049899 
L 283.710413 287.214426 
L 286.989752 287.392132 
L 290.269091 287.679718 
L 293.54843 288.099873 
L 296.827769 288.488125 
L 300.107107 288.816243 
L 303.386446 288.753734 
L 306.665785 289.340457 
L 309.945124 289.504819 
L 313.224463 289.703884 
L 316.503802 289.622816 
L 319.78314 290.256436 
L 323.062479 290.140589 
L 326.341818 290.284036 
L 329.621157 290.188499 
L 332.900496 290.99002 
L 336.179835 290.599263 
L 339.459174 290.881108 
L 342.738512 291.441505 
L 346.017851 291.946037 
L 349.29719 291.746732 
L 352.576529 292.069724 
L 355.855868 292.484659 
L 359.135207 292.037662 
L 362.414545 292.719578 
L 365.693884 292.848961 
L 368.973223 292.806474 
L 372.252562 293.083785 
L 375.531901 292.662856 
L 378.81124 293.136808 
L 382.090579 293.248963 
L 385.369917 293.73681 
L 388.649256 293.215124 
L 391.928595 293.969323 
L 395.207934 293.624929 
L 398.487273 293.885034 
" style="fill:none;stroke:#1f77b4;stroke-linecap:square;stroke-width:1.5;"/>
   </g>
   <g id="patch_3">
    <path d="M 57.6 307.584 
L 57.6 41.472 
" style="fill:none;stroke:#000000;stroke-linecap:square;stroke-linejoin:miter;stroke-width:0.8;"/>
   </g>
   <g id="patch_4">
    <path d="M 414.72 307.584 
L 414.72 41.472 
" style="fill:none;stroke:#000000;stroke-linecap:square;stroke-linejoin:miter;stroke-width:0.8;"/>
   </g>
   <g id="patch_5">
    <path d="M 57.6 307.584 
L 414.72 307.584 
" style="fill:none;stroke:#000000;stroke-linecap:square;stroke-linejoin:miter;stroke-width:0.8;"/>
   </g>
   <g id="patch_6">
    <path d="M 57.6 41.472 
L 414.72 41.472 
" style="fill:none;stroke:#000000;stroke-linecap:square;stroke-linejoin:miter;stroke-width:0.8;"/>
   </g>
  </g>
  <g id="axes_2">
   <g id="PolyCollection_3">
    <defs>
     <path d="M 73.832727 -98.495987 
L 73.832727 -50.112 
L 77.112066 -98.495987 
L 80.391405 -167.615987 
L 83.670744 -195.263993 
L 86.950083 -188.352 
L 90.229421 -214.272 
L 93.50876 -224.640007 
L 96.788099 -229.823993 
L 100.067438 -229.823993 
L 103.346777 -236.735987 
L 106.626116 -255.743993 
L 109.905455 -254.015987 
L 113.184793 -259.200007 
L 116.464132 -262.655987 
L 119.743471 -266.112 
L 123.02281 -267.840007 
L 126.302149 -269.568013 
L 129.581488 -269.568013 
L 132.860826 -271.295987 
L 136.140165 -273.023993 
L 139.419504 -273.023993 
L 142.698843 -274.752 
L 145.978182 -274.752 
L 149.257521 -276.480007 
L 152.53686 -276.480007 
L 155.816198 -274.752 
L 159.095537 -276.480007 
L 162.374876 -278.208013 
L 165.654215 -276.480007 
L 168.933554 -276.480007 
L 172.212893 -276.480007 
L 175.492231 -276.480007 
L 178.77157 -279.935987 
L 182.050909 -276.480007 
L 185.330248 -278.208013 
L 188.609587 -274.752 
L 191.888926 -278.208013 
L 195.168264 -281.663993 
L 198.447603 -279.935987 
L 201.726942 -279.935987 
L 205.006281 -279.935987 
L 208.28562 -278.208013 
L 211.564959 -279.935987 
L 214.844298 -279.935987 
L 218.123636 -279.935987 
L 221.402975 -279.935987 
L 224.682314 -279.935987 
L 227.961653 -279.935987 
L 231.240992 -281.663993 
L 234.520331 -276.480007 
L 237.799669 -281.663993 
L 241.079008 -281.663993 
L 244.358347 -281.663993 
L 247.637686 -279.935987 
L 250.917025 -281.663993 
L 254.196364 -278.208013 
L 257.475702 -281.663993 
L 260.755041 -281.663993 
L 264.03438 -283.392 
L 267.313719 -279.935987 
L 270.593058 -279.935987 
L 273.872397 -281.663993 
L 277.151736 -283.392 
L 280.431074 -281.663993 
L 283.710413 -281.663993 
L 286.989752 -281.663993 
L 290.269091 -281.663993 
L 293.54843 -283.392 
L 296.827769 -283.392 
L 300.107107 -281.663993 
L 303.386446 -281.663993 
L 306.665785 -281.663993 
L 309.945124 -283.392 
L 313.224463 -283.392 
L 316.503802 -281.663993 
L 319.78314 -283.392 
L 323.062479 -279.935987 
L 326.341818 -281.663993 
L 329.621157 -283.392 
L 332.900496 -281.663993 
L 336.179835 -285.120007 
L 339.459174 -283.392 
L 342.738512 -283.392 
L 346.017851 -283.392 
L 349.29719 -283.392 
L 352.576529 -283.392 
L 355.855868 -281.663993 
L 359.135207 -283.392 
L 362.414545 -283.392 
L 365.693884 -283.392 
L 368.973223 -281.663993 
L 372.252562 -283.392 
L 375.531901 -283.392 
L 378.81124 -285.120007 
L 382.090579 -283.392 
L 385.369917 -283.392 
L 388.649256 -283.392 
L 391.928595 -283.392 
L 395.207934 -283.392 
L 398.487273 -281.663993 
L 398.487273 -288.575987 
L 398.487273 -288.575987 
L 395.207934 -290.303993 
L 391.928595 -288.575987 
L 388.649256 -288.575987 
L 385.369917 -288.575987 
L 382.090579 -290.303993 
L 378.81124 -288.575987 
L 375.531901 -290.303993 
L 372.252562 -290.303993 
L 368.973223 -288.575987 
L 365.693884 -286.848013 
L 362.414545 -288.575987 
L 359.135207 -290.303993 
L 355.855868 -290.303993 
L 352.576529 -288.575987 
L 349.29719 -288.575987 
L 346.017851 -288.575987 
L 342.738512 -288.575987 
L 339.459174 -288.575987 
L 336.179835 -288.575987 
L 332.900496 -288.575987 
L 329.621157 -288.575987 
L 326.341818 -290.303993 
L 323.062479 -288.575987 
L 319.78314 -286.848013 
L 316.503802 -288.575987 
L 313.224463 -286.848013 
L 309.945124 -288.575987 
L 306.665785 -288.575987 
L 303.386446 -288.575987 
L 300.107107 -288.575987 
L 296.827769 -288.575987 
L 293.54843 -286.848013 
L 290.269091 -290.303993 
L 286.989752 -288.575987 
L 283.710413 -288.575987 
L 280.431074 -286.848013 
L 277.151736 -288.575987 
L 273.872397 -290.303993 
L 270.593058 -288.575987 
L 267.313719 -286.848013 
L 264.03438 -288.575987 
L 260.755041 -288.575987 
L 257.475702 -288.575987 
L 254.196364 -288.575987 
L 250.917025 -286.848013 
L 247.637686 -288.575987 
L 244.358347 -286.848013 
L 241.079008 -288.575987 
L 237.799669 -286.848013 
L 234.520331 -288.575987 
L 231.240992 -286.848013 
L 227.961653 -286.848013 
L 224.682314 -286.848013 
L 221.402975 -286.848013 
L 218.123636 -286.848013 
L 214.844298 -286.848013 
L 211.564959 -288.575987 
L 208.28562 -286.848013 
L 205.006281 -286.848013 
L 201.726942 -286.848013 
L 198.447603 -286.848013 
L 195.168264 -285.120007 
L 191.888926 -285.120007 
L 188.609587 -286.848013 
L 185.330248 -286.848013 
L 182.050909 -285.120007 
L 178.77157 -286.848013 
L 175.492231 -285.120007 
L 172.212893 -285.120007 
L 168.933554 -285.120007 
L 165.654215 -283.392 
L 162.374876 -285.120007 
L 159.095537 -283.392 
L 155.816198 -285.120007 
L 152.53686 -285.120007 
L 149.257521 -285.120007 
L 145.978182 -281.663993 
L 142.698843 -283.392 
L 139.419504 -283.392 
L 136.140165 -281.663993 
L 132.860826 -281.663993 
L 129.581488 -279.935987 
L 126.302149 -285.120007 
L 123.02281 -278.208013 
L 119.743471 -278.208013 
L 116.464132 -278.208013 
L 113.184793 -276.480007 
L 109.905455 -278.208013 
L 106.626116 -271.295987 
L 103.346777 -271.295987 
L 100.067438 -278.208013 
L 96.788099 -269.568013 
L 93.50876 -259.200007 
L 90.229421 -250.560007 
L 86.950083 -262.655987 
L 83.670744 -233.280007 
L 80.391405 -226.368013 
L 77.112066 -193.535987 
L 73.832727 -98.495987 
z
" id="m7ba225e1e1"/>
    </defs>
    <g clip-path="url(#pa55a568a0a)">
     <use style="fill:#bcbd22;fill-opacity:0.3;" x="0" xlink:href="#m7ba225e1e1" y="345.6"/>
    </g>
   </g>
   <g id="PolyCollection_4">
    <defs>
     <path d="M 73.832727 -202.175987 
L 73.832727 -50.112 
L 77.112066 -160.703993 
L 80.391405 -188.352 
L 83.670744 -202.175987 
L 86.950083 -222.912 
L 90.229421 -236.735987 
L 93.50876 -243.648013 
L 96.788099 -243.648013 
L 100.067438 -250.560007 
L 103.346777 -257.472 
L 106.626116 -257.472 
L 109.905455 -264.383993 
L 113.184793 -271.295987 
L 116.464132 -271.295987 
L 119.743471 -271.295987 
L 123.02281 -271.295987 
L 126.302149 -271.295987 
L 129.581488 -271.295987 
L 132.860826 -264.383993 
L 136.140165 -278.208013 
L 139.419504 -271.295987 
L 142.698843 -278.208013 
L 145.978182 -278.208013 
L 149.257521 -278.208013 
L 152.53686 -271.295987 
L 155.816198 -271.295987 
L 159.095537 -278.208013 
L 162.374876 -278.208013 
L 165.654215 -278.208013 
L 168.933554 -271.295987 
L 172.212893 -285.120007 
L 175.492231 -285.120007 
L 178.77157 -285.120007 
L 182.050909 -278.208013 
L 185.330248 -278.208013 
L 188.609587 -278.208013 
L 191.888926 -278.208013 
L 195.168264 -278.208013 
L 198.447603 -278.208013 
L 201.726942 -285.120007 
L 205.006281 -285.120007 
L 208.28562 -278.208013 
L 211.564959 -271.295987 
L 214.844298 -278.208013 
L 218.123636 -285.120007 
L 221.402975 -278.208013 
L 224.682314 -278.208013 
L 227.961653 -285.120007 
L 231.240992 -278.208013 
L 234.520331 -278.208013 
L 237.799669 -285.120007 
L 241.079008 -278.208013 
L 244.358347 -278.208013 
L 247.637686 -278.208013 
L 250.917025 -278.208013 
L 254.196364 -285.120007 
L 257.475702 -278.208013 
L 260.755041 -278.208013 
L 264.03438 -285.120007 
L 267.313719 -285.120007 
L 270.593058 -285.120007 
L 273.872397 -285.120007 
L 277.151736 -285.120007 
L 280.431074 -285.120007 
L 283.710413 -278.208013 
L 286.989752 -285.120007 
L 290.269091 -278.208013 
L 293.54843 -278.208013 
L 296.827769 -285.120007 
L 300.107107 -285.120007 
L 303.386446 -285.120007 
L 306.665785 -285.120007 
L 309.945124 -285.120007 
L 313.224463 -285.120007 
L 316.503802 -278.208013 
L 319.78314 -285.120007 
L 323.062479 -285.120007 
L 326.341818 -285.120007 
L 329.621157 -285.120007 
L 332.900496 -278.208013 
L 336.179835 -278.208013 
L 339.459174 -285.120007 
L 342.738512 -285.120007 
L 346.017851 -278.208013 
L 349.29719 -285.120007 
L 352.576529 -285.120007 
L 355.855868 -285.120007 
L 359.135207 -285.120007 
L 362.414545 -285.120007 
L 365.693884 -285.120007 
L 368.973223 -285.120007 
L 372.252562 -285.120007 
L 375.531901 -285.120007 
L 378.81124 -285.120007 
L 382.090579 -285.120007 
L 385.369917 -285.120007 
L 388.649256 -285.120007 
L 391.928595 -285.120007 
L 395.207934 -285.120007 
L 398.487273 -285.120007 
L 398.487273 -292.032 
L 398.487273 -292.032 
L 395.207934 -292.032 
L 391.928595 -292.032 
L 388.649256 -292.032 
L 385.369917 -292.032 
L 382.090579 -292.032 
L 378.81124 -292.032 
L 375.531901 -292.032 
L 372.252562 -292.032 
L 368.973223 -292.032 
L 365.693884 -292.032 
L 362.414545 -292.032 
L 359.135207 -292.032 
L 355.855868 -292.032 
L 352.576529 -292.032 
L 349.29719 -292.032 
L 346.017851 -292.032 
L 342.738512 -292.032 
L 339.459174 -292.032 
L 336.179835 -292.032 
L 332.900496 -292.032 
L 329.621157 -292.032 
L 326.341818 -292.032 
L 323.062479 -292.032 
L 319.78314 -292.032 
L 316.503802 -292.032 
L 313.224463 -292.032 
L 309.945124 -292.032 
L 306.665785 -292.032 
L 303.386446 -292.032 
L 300.107107 -292.032 
L 296.827769 -292.032 
L 293.54843 -292.032 
L 290.269091 -292.032 
L 286.989752 -292.032 
L 283.710413 -292.032 
L 280.431074 -292.032 
L 277.151736 -292.032 
L 273.872397 -292.032 
L 270.593058 -292.032 
L 267.313719 -292.032 
L 264.03438 -292.032 
L 260.755041 -292.032 
L 257.475702 -292.032 
L 254.196364 -292.032 
L 250.917025 -292.032 
L 247.637686 -292.032 
L 244.358347 -292.032 
L 241.079008 -292.032 
L 237.799669 -292.032 
L 234.520331 -292.032 
L 231.240992 -292.032 
L 227.961653 -292.032 
L 224.682314 -292.032 
L 221.402975 -292.032 
L 218.123636 -292.032 
L 214.844298 -292.032 
L 211.564959 -292.032 
L 208.28562 -292.032 
L 205.006281 -292.032 
L 201.726942 -292.032 
L 198.447603 -292.032 
L 195.168264 -292.032 
L 191.888926 -292.032 
L 188.609587 -292.032 
L 185.330248 -292.032 
L 182.050909 -292.032 
L 178.77157 -292.032 
L 175.492231 -292.032 
L 172.212893 -292.032 
L 168.933554 -292.032 
L 165.654215 -292.032 
L 162.374876 -292.032 
L 159.095537 -292.032 
L 155.816198 -292.032 
L 152.53686 -292.032 
L 149.257521 -292.032 
L 145.978182 -292.032 
L 142.698843 -292.032 
L 139.419504 -292.032 
L 136.140165 -292.032 
L 132.860826 -292.032 
L 129.581488 -285.120007 
L 126.302149 -292.032 
L 123.02281 -292.032 
L 119.743471 -292.032 
L 116.464132 -285.120007 
L 113.184793 -285.120007 
L 109.905455 -292.032 
L 106.626116 -292.032 
L 103.346777 -292.032 
L 100.067438 -285.120007 
L 96.788099 -271.295987 
L 93.50876 -264.383993 
L 90.229421 -257.472 
L 86.950083 -250.560007 
L 83.670744 -264.383993 
L 80.391405 -250.560007 
L 77.112066 -229.823993 
L 73.832727 -202.175987 
z
" id="mf82a5441d5"/>
    </defs>
    <g clip-path="url(#pa55a568a0a)">
     <use style="fill:#ff7f0e;fill-opacity:0.3;" x="0" xlink:href="#mf82a5441d5" y="345.6"/>
    </g>
   </g>
   <g id="matplotlib.axis_3">
    <g id="ytick_8">
     <g id="line2d_16">
      <defs>
       <path d="M 0 0 
L 3.5 0 
" id="mce6cdaad05" style="stroke:#000000;stroke-width:0.8;"/>
      </defs>
      <g>
       <use style="stroke:#000000;stroke-width:0.8;" x="414.72" xlink:href="#mce6cdaad05" y="274.752"/>
      </g>
     </g>
     <g id="text_16">
      <!-- 0.6 -->
      <g transform="translate(421.72 278.551219)scale(0.1 -0.1)">
       <use xlink:href="#DejaVuSans-30"/>
       <use x="63.623047" xlink:href="#DejaVuSans-2e"/>
       <use x="95.410156" xlink:href="#DejaVuSans-36"/>
      </g>
     </g>
    </g>
    <g id="ytick_9">
     <g id="line2d_17">
      <g>
       <use style="stroke:#000000;stroke-width:0.8;" x="414.72" xlink:href="#mce6cdaad05" y="219.456"/>
      </g>
     </g>
     <g id="text_17">
      <!-- 0.7 -->
      <g transform="translate(421.72 223.255219)scale(0.1 -0.1)">
       <use xlink:href="#DejaVuSans-30"/>
       <use x="63.623047" xlink:href="#DejaVuSans-2e"/>
       <use x="95.410156" xlink:href="#DejaVuSans-37"/>
      </g>
     </g>
    </g>
    <g id="ytick_10">
     <g id="line2d_18">
      <g>
       <use style="stroke:#000000;stroke-width:0.8;" x="414.72" xlink:href="#mce6cdaad05" y="164.16"/>
      </g>
     </g>
     <g id="text_18">
      <!-- 0.8 -->
      <g transform="translate(421.72 167.959219)scale(0.1 -0.1)">
       <use xlink:href="#DejaVuSans-30"/>
       <use x="63.623047" xlink:href="#DejaVuSans-2e"/>
       <use x="95.410156" xlink:href="#DejaVuSans-38"/>
      </g>
     </g>
    </g>
    <g id="ytick_11">
     <g id="line2d_19">
      <g>
       <use style="stroke:#000000;stroke-width:0.8;" x="414.72" xlink:href="#mce6cdaad05" y="108.864"/>
      </g>
     </g>
     <g id="text_19">
      <!-- 0.9 -->
      <g transform="translate(421.72 112.663219)scale(0.1 -0.1)">
       <defs>
        <path d="M 703 97 
L 703 672 
Q 941 559 1184 500 
Q 1428 441 1663 441 
Q 2288 441 2617 861 
Q 2947 1281 2994 2138 
Q 2813 1869 2534 1725 
Q 2256 1581 1919 1581 
Q 1219 1581 811 2004 
Q 403 2428 403 3163 
Q 403 3881 828 4315 
Q 1253 4750 1959 4750 
Q 2769 4750 3195 4129 
Q 3622 3509 3622 2328 
Q 3622 1225 3098 567 
Q 2575 -91 1691 -91 
Q 1453 -91 1209 -44 
Q 966 3 703 97 
z
M 1959 2075 
Q 2384 2075 2632 2365 
Q 2881 2656 2881 3163 
Q 2881 3666 2632 3958 
Q 2384 4250 1959 4250 
Q 1534 4250 1286 3958 
Q 1038 3666 1038 3163 
Q 1038 2656 1286 2365 
Q 1534 2075 1959 2075 
z
" id="DejaVuSans-39" transform="scale(0.015625)"/>
       </defs>
       <use xlink:href="#DejaVuSans-30"/>
       <use x="63.623047" xlink:href="#DejaVuSans-2e"/>
       <use x="95.410156" xlink:href="#DejaVuSans-39"/>
      </g>
     </g>
    </g>
    <g id="ytick_12">
     <g id="line2d_20">
      <g>
       <use style="stroke:#000000;stroke-width:0.8;" x="414.72" xlink:href="#mce6cdaad05" y="53.568"/>
      </g>
     </g>
     <g id="text_20">
      <!-- 1.0 -->
      <g transform="translate(421.72 57.367219)scale(0.1 -0.1)">
       <use xlink:href="#DejaVuSans-31"/>
       <use x="63.623047" xlink:href="#DejaVuSans-2e"/>
       <use x="95.410156" xlink:href="#DejaVuSans-30"/>
      </g>
     </g>
    </g>
    <g id="text_21">
     <!-- accuracy -->
     <g transform="translate(449.221563 197.087375)rotate(-90)scale(0.1 -0.1)">
      <defs>
       <path d="M 2194 1759 
Q 1497 1759 1228 1600 
Q 959 1441 959 1056 
Q 959 750 1161 570 
Q 1363 391 1709 391 
Q 2188 391 2477 730 
Q 2766 1069 2766 1631 
L 2766 1759 
L 2194 1759 
z
M 3341 1997 
L 3341 0 
L 2766 0 
L 2766 531 
Q 2569 213 2275 61 
Q 1981 -91 1556 -91 
Q 1019 -91 701 211 
Q 384 513 384 1019 
Q 384 1609 779 1909 
Q 1175 2209 1959 2209 
L 2766 2209 
L 2766 2266 
Q 2766 2663 2505 2880 
Q 2244 3097 1772 3097 
Q 1472 3097 1187 3025 
Q 903 2953 641 2809 
L 641 3341 
Q 956 3463 1253 3523 
Q 1550 3584 1831 3584 
Q 2591 3584 2966 3190 
Q 3341 2797 3341 1997 
z
" id="DejaVuSans-61" transform="scale(0.015625)"/>
       <path d="M 544 1381 
L 544 3500 
L 1119 3500 
L 1119 1403 
Q 1119 906 1312 657 
Q 1506 409 1894 409 
Q 2359 409 2629 706 
Q 2900 1003 2900 1516 
L 2900 3500 
L 3475 3500 
L 3475 0 
L 2900 0 
L 2900 538 
Q 2691 219 2414 64 
Q 2138 -91 1772 -91 
Q 1169 -91 856 284 
Q 544 659 544 1381 
z
M 1991 3584 
L 1991 3584 
z
" id="DejaVuSans-75" transform="scale(0.015625)"/>
       <path d="M 2631 2963 
Q 2534 3019 2420 3045 
Q 2306 3072 2169 3072 
Q 1681 3072 1420 2755 
Q 1159 2438 1159 1844 
L 1159 0 
L 581 0 
L 581 3500 
L 1159 3500 
L 1159 2956 
Q 1341 3275 1631 3429 
Q 1922 3584 2338 3584 
Q 2397 3584 2469 3576 
Q 2541 3569 2628 3553 
L 2631 2963 
z
" id="DejaVuSans-72" transform="scale(0.015625)"/>
       <path d="M 2059 -325 
Q 1816 -950 1584 -1140 
Q 1353 -1331 966 -1331 
L 506 -1331 
L 506 -850 
L 844 -850 
Q 1081 -850 1212 -737 
Q 1344 -625 1503 -206 
L 1606 56 
L 191 3500 
L 800 3500 
L 1894 763 
L 2988 3500 
L 3597 3500 
L 2059 -325 
z
" id="DejaVuSans-79" transform="scale(0.015625)"/>
      </defs>
      <use xlink:href="#DejaVuSans-61"/>
      <use x="61.279297" xlink:href="#DejaVuSans-63"/>
      <use x="116.259766" xlink:href="#DejaVuSans-63"/>
      <use x="171.240234" xlink:href="#DejaVuSans-75"/>
      <use x="234.619141" xlink:href="#DejaVuSans-72"/>
      <use x="275.732422" xlink:href="#DejaVuSans-61"/>
      <use x="337.011719" xlink:href="#DejaVuSans-63"/>
      <use x="391.992188" xlink:href="#DejaVuSans-79"/>
     </g>
    </g>
   </g>
   <g id="line2d_21">
    <path clip-path="url(#pa55a568a0a)" d="M 73.832727 272.505601 
L 77.112066 184.204801 
L 80.391405 146.707199 
L 83.670744 130.118399 
L 86.950083 117.676801 
L 90.229421 110.073598 
L 93.50876 101.433595 
L 96.788099 95.04 
L 100.067438 88.646402 
L 103.346777 85.708804 
L 106.626116 81.734405 
L 109.905455 79.315203 
L 113.184793 76.896 
L 116.464132 74.649601 
L 119.743471 73.612794 
L 123.02281 71.193598 
L 126.302149 68.947196 
L 129.581488 69.465601 
L 132.860826 69.465598 
L 136.140165 68.601605 
L 139.419504 67.046399 
L 142.698843 66.182402 
L 145.978182 67.392003 
L 149.257521 64.281601 
L 152.53686 64.454399 
L 155.816198 65.836804 
L 159.095537 65.145605 
L 162.374876 62.726399 
L 165.654215 65.318402 
L 168.933554 64.454402 
L 172.212893 63.072 
L 175.492231 63.417601 
L 178.77157 62.208 
L 182.050909 63.244801 
L 185.330248 62.553598 
L 188.609587 62.726399 
L 191.888926 62.553598 
L 195.168264 62.035199 
L 198.447603 62.899203 
L 201.726942 62.726402 
L 205.006281 62.380801 
L 208.28562 63.244797 
L 211.564959 62.208003 
L 214.844298 62.380801 
L 218.123636 61.516797 
L 221.402975 62.380801 
L 224.682314 62.035199 
L 227.961653 61.689598 
L 231.240992 60.998395 
L 234.520331 61.689598 
L 237.799669 61.516797 
L 241.079008 60.307196 
L 244.358347 60.652794 
L 247.637686 60.479997 
L 250.917025 60.998395 
L 254.196364 60.998395 
L 257.475702 60.998399 
L 260.755041 60.998402 
L 264.03438 59.788794 
L 267.313719 61.516797 
L 270.593058 60.307199 
L 273.872397 59.961595 
L 277.151736 59.270395 
L 280.431074 60.998395 
L 283.710413 60.134395 
L 286.989752 60.825598 
L 290.269091 60.307199 
L 293.54843 60.134392 
L 296.827769 60.307196 
L 300.107107 60.479997 
L 303.386446 60.134402 
L 306.665785 59.961595 
L 309.945124 59.615997 
L 313.224463 59.961591 
L 316.503802 59.615997 
L 319.78314 59.61599 
L 323.062479 60.307196 
L 326.341818 59.788797 
L 329.621157 59.961595 
L 332.900496 59.961595 
L 336.179835 59.270395 
L 339.459174 59.443196 
L 342.738512 59.443196 
L 346.017851 58.924804 
L 349.29719 58.924801 
L 352.576529 59.097598 
L 355.855868 58.924797 
L 359.135207 59.097598 
L 362.414545 59.788794 
L 365.693884 60.134392 
L 368.973223 59.615997 
L 372.252562 58.752 
L 375.531901 58.924797 
L 378.81124 58.924797 
L 382.090579 58.579203 
L 385.369917 59.270402 
L 388.649256 58.924801 
L 391.928595 59.615993 
L 395.207934 58.579203 
L 398.487273 59.616 
" style="fill:none;stroke:#bcbd22;stroke-linecap:square;stroke-width:1.5;"/>
   </g>
   <g id="line2d_22">
    <path clip-path="url(#pa55a568a0a)" d="M 73.832727 204.249601 
L 77.112066 151.718402 
L 80.391405 128.908801 
L 83.670744 113.011203 
L 86.950083 106.099203 
L 90.229421 95.04 
L 93.50876 91.583997 
L 96.788099 81.907206 
L 100.067438 81.216003 
L 103.346777 70.847997 
L 106.626116 67.391993 
L 109.905455 66.009595 
L 113.184793 66.700794 
L 116.464132 64.627196 
L 119.743471 65.318395 
L 123.02281 65.318392 
L 126.302149 66.009595 
L 129.581488 63.935993 
L 132.860826 66.009595 
L 136.140165 62.553591 
L 139.419504 63.244794 
L 142.698843 60.479993 
L 145.978182 61.862392 
L 149.257521 61.862392 
L 152.53686 61.862395 
L 155.816198 61.862402 
L 159.095537 61.171193 
L 162.374876 61.862392 
L 165.654215 61.862392 
L 168.933554 59.097598 
L 172.212893 57.715196 
L 175.492231 57.715196 
L 178.77157 58.406395 
L 182.050909 61.862392 
L 185.330248 57.715196 
L 188.609587 58.406395 
L 191.888926 59.097595 
L 195.168264 58.406395 
L 198.447603 58.406395 
L 201.726942 55.641598 
L 205.006281 57.023997 
L 208.28562 56.332797 
L 211.564959 58.406399 
L 214.844298 57.023997 
L 218.123636 55.641598 
L 221.402975 59.097595 
L 224.682314 57.023997 
L 227.961653 54.950399 
L 231.240992 57.023997 
L 234.520331 59.097595 
L 237.799669 57.023997 
L 241.079008 57.023997 
L 244.358347 59.788794 
L 247.637686 57.715196 
L 250.917025 57.715196 
L 254.196364 54.950399 
L 257.475702 57.023997 
L 260.755041 57.023997 
L 264.03438 55.641598 
L 267.313719 56.332797 
L 270.593058 54.259199 
L 273.872397 57.023997 
L 277.151736 54.950399 
L 280.431074 54.259199 
L 283.710413 57.023997 
L 286.989752 57.023997 
L 290.269091 57.715196 
L 293.54843 57.023997 
L 296.827769 55.641598 
L 300.107107 54.950399 
L 303.386446 55.641598 
L 306.665785 54.259199 
L 309.945124 56.332797 
L 313.224463 54.259199 
L 316.503802 56.332797 
L 319.78314 55.641598 
L 323.062479 54.950399 
L 326.341818 56.332797 
L 329.621157 54.950399 
L 332.900496 56.332797 
L 336.179835 55.641598 
L 339.459174 54.950399 
L 342.738512 54.259199 
L 346.017851 55.641598 
L 349.29719 54.259199 
L 352.576529 54.950399 
L 355.855868 54.950399 
L 359.135207 57.023997 
L 362.414545 54.950399 
L 365.693884 54.259199 
L 368.973223 54.259199 
L 372.252562 54.259199 
L 375.531901 54.950399 
L 378.81124 55.641598 
L 382.090579 54.259199 
L 385.369917 54.950399 
L 388.649256 54.950399 
L 391.928595 54.259199 
L 395.207934 55.641598 
L 398.487273 54.950399 
" style="fill:none;stroke:#ff7f0e;stroke-linecap:square;stroke-width:1.5;"/>
   </g>
   <g id="patch_7">
    <path d="M 57.6 307.584 
L 57.6 41.472 
" style="fill:none;stroke:#000000;stroke-linecap:square;stroke-linejoin:miter;stroke-width:0.8;"/>
   </g>
   <g id="patch_8">
    <path d="M 414.72 307.584 
L 414.72 41.472 
" style="fill:none;stroke:#000000;stroke-linecap:square;stroke-linejoin:miter;stroke-width:0.8;"/>
   </g>
   <g id="patch_9">
    <path d="M 57.6 307.584 
L 414.72 307.584 
" style="fill:none;stroke:#000000;stroke-linecap:square;stroke-linejoin:miter;stroke-width:0.8;"/>
   </g>
   <g id="patch_10">
    <path d="M 57.6 41.472 
L 414.72 41.472 
" style="fill:none;stroke:#000000;stroke-linecap:square;stroke-linejoin:miter;stroke-width:0.8;"/>
   </g>
   <g id="legend_1">
    <g id="patch_11">
     <path d="M 278.18875 205.38425 
L 407.72 205.38425 
Q 409.72 205.38425 409.72 203.38425 
L 409.72 145.67175 
Q 409.72 143.67175 407.72 143.67175 
L 278.18875 143.67175 
Q 276.18875 143.67175 276.18875 145.67175 
L 276.18875 203.38425 
Q 276.18875 205.38425 278.18875 205.38425 
z
" style="fill:#ffffff;opacity:0.8;stroke:#cccccc;stroke-linejoin:miter;"/>
    </g>
    <g id="line2d_23">
     <path d="M 280.18875 151.770188 
L 300.18875 151.770188 
" style="fill:none;stroke:#d62728;stroke-linecap:square;stroke-width:1.5;"/>
    </g>
    <g id="line2d_24"/>
    <g id="text_22">
     <!-- loss -->
     <g transform="translate(308.18875 155.270188)scale(0.1 -0.1)">
      <use xlink:href="#DejaVuSans-6c"/>
      <use x="27.783203" xlink:href="#DejaVuSans-6f"/>
      <use x="88.964844" xlink:href="#DejaVuSans-73"/>
      <use x="141.064453" xlink:href="#DejaVuSans-73"/>
     </g>
    </g>
    <g id="line2d_25">
     <path d="M 280.18875 166.448313 
L 300.18875 166.448313 
" style="fill:none;stroke:#1f77b4;stroke-linecap:square;stroke-width:1.5;"/>
    </g>
    <g id="line2d_26"/>
    <g id="text_23">
     <!-- validation loss -->
     <g transform="translate(308.18875 169.948313)scale(0.1 -0.1)">
      <defs>
       <path d="M 191 3500 
L 800 3500 
L 1894 563 
L 2988 3500 
L 3597 3500 
L 2284 0 
L 1503 0 
L 191 3500 
z
" id="DejaVuSans-76" transform="scale(0.015625)"/>
       <path d="M 603 3500 
L 1178 3500 
L 1178 0 
L 603 0 
L 603 3500 
z
M 603 4863 
L 1178 4863 
L 1178 4134 
L 603 4134 
L 603 4863 
z
" id="DejaVuSans-69" transform="scale(0.015625)"/>
       <path d="M 2906 2969 
L 2906 4863 
L 3481 4863 
L 3481 0 
L 2906 0 
L 2906 525 
Q 2725 213 2448 61 
Q 2172 -91 1784 -91 
Q 1150 -91 751 415 
Q 353 922 353 1747 
Q 353 2572 751 3078 
Q 1150 3584 1784 3584 
Q 2172 3584 2448 3432 
Q 2725 3281 2906 2969 
z
M 947 1747 
Q 947 1113 1208 752 
Q 1469 391 1925 391 
Q 2381 391 2643 752 
Q 2906 1113 2906 1747 
Q 2906 2381 2643 2742 
Q 2381 3103 1925 3103 
Q 1469 3103 1208 2742 
Q 947 2381 947 1747 
z
" id="DejaVuSans-64" transform="scale(0.015625)"/>
       <path d="M 1172 4494 
L 1172 3500 
L 2356 3500 
L 2356 3053 
L 1172 3053 
L 1172 1153 
Q 1172 725 1289 603 
Q 1406 481 1766 481 
L 2356 481 
L 2356 0 
L 1766 0 
Q 1100 0 847 248 
Q 594 497 594 1153 
L 594 3053 
L 172 3053 
L 172 3500 
L 594 3500 
L 594 4494 
L 1172 4494 
z
" id="DejaVuSans-74" transform="scale(0.015625)"/>
       <path d="M 3513 2113 
L 3513 0 
L 2938 0 
L 2938 2094 
Q 2938 2591 2744 2837 
Q 2550 3084 2163 3084 
Q 1697 3084 1428 2787 
Q 1159 2491 1159 1978 
L 1159 0 
L 581 0 
L 581 3500 
L 1159 3500 
L 1159 2956 
Q 1366 3272 1645 3428 
Q 1925 3584 2291 3584 
Q 2894 3584 3203 3211 
Q 3513 2838 3513 2113 
z
" id="DejaVuSans-6e" transform="scale(0.015625)"/>
       <path id="DejaVuSans-20" transform="scale(0.015625)"/>
      </defs>
      <use xlink:href="#DejaVuSans-76"/>
      <use x="59.179688" xlink:href="#DejaVuSans-61"/>
      <use x="120.458984" xlink:href="#DejaVuSans-6c"/>
      <use x="148.242188" xlink:href="#DejaVuSans-69"/>
      <use x="176.025391" xlink:href="#DejaVuSans-64"/>
      <use x="239.501953" xlink:href="#DejaVuSans-61"/>
      <use x="300.78125" xlink:href="#DejaVuSans-74"/>
      <use x="339.990234" xlink:href="#DejaVuSans-69"/>
      <use x="367.773438" xlink:href="#DejaVuSans-6f"/>
      <use x="428.955078" xlink:href="#DejaVuSans-6e"/>
      <use x="492.333984" xlink:href="#DejaVuSans-20"/>
      <use x="524.121094" xlink:href="#DejaVuSans-6c"/>
      <use x="551.904297" xlink:href="#DejaVuSans-6f"/>
      <use x="613.085938" xlink:href="#DejaVuSans-73"/>
      <use x="665.185547" xlink:href="#DejaVuSans-73"/>
     </g>
    </g>
    <g id="line2d_27">
     <path d="M 280.18875 181.126438 
L 300.18875 181.126438 
" style="fill:none;stroke:#bcbd22;stroke-linecap:square;stroke-width:1.5;"/>
    </g>
    <g id="line2d_28"/>
    <g id="text_24">
     <!-- accuracy -->
     <g transform="translate(308.18875 184.626438)scale(0.1 -0.1)">
      <use xlink:href="#DejaVuSans-61"/>
      <use x="61.279297" xlink:href="#DejaVuSans-63"/>
      <use x="116.259766" xlink:href="#DejaVuSans-63"/>
      <use x="171.240234" xlink:href="#DejaVuSans-75"/>
      <use x="234.619141" xlink:href="#DejaVuSans-72"/>
      <use x="275.732422" xlink:href="#DejaVuSans-61"/>
      <use x="337.011719" xlink:href="#DejaVuSans-63"/>
      <use x="391.992188" xlink:href="#DejaVuSans-79"/>
     </g>
    </g>
    <g id="line2d_29">
     <path d="M 280.18875 195.804563 
L 300.18875 195.804563 
" style="fill:none;stroke:#ff7f0e;stroke-linecap:square;stroke-width:1.5;"/>
    </g>
    <g id="line2d_30"/>
    <g id="text_25">
     <!-- validation accuracy -->
     <g transform="translate(308.18875 199.304563)scale(0.1 -0.1)">
      <use xlink:href="#DejaVuSans-76"/>
      <use x="59.179688" xlink:href="#DejaVuSans-61"/>
      <use x="120.458984" xlink:href="#DejaVuSans-6c"/>
      <use x="148.242188" xlink:href="#DejaVuSans-69"/>
      <use x="176.025391" xlink:href="#DejaVuSans-64"/>
      <use x="239.501953" xlink:href="#DejaVuSans-61"/>
      <use x="300.78125" xlink:href="#DejaVuSans-74"/>
      <use x="339.990234" xlink:href="#DejaVuSans-69"/>
      <use x="367.773438" xlink:href="#DejaVuSans-6f"/>
      <use x="428.955078" xlink:href="#DejaVuSans-6e"/>
      <use x="492.333984" xlink:href="#DejaVuSans-20"/>
      <use x="524.121094" xlink:href="#DejaVuSans-61"/>
      <use x="585.400391" xlink:href="#DejaVuSans-63"/>
      <use x="640.380859" xlink:href="#DejaVuSans-63"/>
      <use x="695.361328" xlink:href="#DejaVuSans-75"/>
      <use x="758.740234" xlink:href="#DejaVuSans-72"/>
      <use x="799.853516" xlink:href="#DejaVuSans-61"/>
      <use x="861.132812" xlink:href="#DejaVuSans-63"/>
      <use x="916.113281" xlink:href="#DejaVuSans-79"/>
     </g>
    </g>
   </g>
  </g>
 </g>
 <defs>
  <clipPath id="pa55a568a0a">
   <rect height="266.112" width="357.12" x="57.6" y="41.472"/>
  </clipPath>
 </defs>
</svg>
